<svg version="1.1" id="Layer_1" xmlns="http://www.w3.org/2000/svg" xmlns:xlink="http://www.w3.org/1999/xlink" x="0px" y="0px"
	 width="100%" viewBox="0 0 431 260" enable-background="new 0 0 431 260" xml:space="preserve">
<path fill="#FFFEFE" opacity="1.000000" stroke="none" 
	d="
M325.000000,261.000000 
	C216.666687,261.000000 108.833374,261.000000 1.000043,261.000000 
	C1.000029,174.333374 1.000029,87.666733 1.000015,1.000078 
	C144.666611,1.000052 288.333221,1.000052 431.999878,1.000026 
	C431.999908,87.666595 431.999908,174.333191 431.999939,260.999878 
	C396.500000,261.000000 361.000000,261.000000 325.000000,261.000000 
M8.426807,169.499878 
	C8.427346,182.330231 8.289288,195.162399 8.457940,207.990555 
	C8.785728,232.922836 25.593967,249.863922 50.263500,249.897308 
	C117.748161,249.988632 185.233109,249.986115 252.717773,249.898376 
	C277.032898,249.866760 294.302277,233.382324 294.472473,209.028198 
	C294.841583,156.209366 294.807281,103.384842 294.488007,50.565369 
	C294.340790,26.206896 277.094604,9.850028 252.753036,9.842964 
	C185.268250,9.823381 117.783409,9.801800 50.298801,9.911934 
	C45.700012,9.919438 40.915291,10.388842 36.538094,11.708415 
	C18.877974,17.032331 8.487834,32.255447 8.449338,52.526031 
	C8.375924,91.183846 8.427436,129.841888 8.426807,169.499878 
M357.127869,98.496307 
	C356.142456,98.661346 355.156921,98.825600 354.171661,98.991547 
	C331.816559,102.756737 314.564484,119.983131 311.983459,141.116638 
	C308.719360,167.842987 319.565186,189.170807 341.620300,198.696045 
	C355.373932,204.636002 369.723785,205.216553 384.210846,201.908096 
	C406.464569,196.825912 422.013367,178.782547 423.880615,156.171158 
	C425.952087,131.086548 414.463043,111.065094 392.883484,102.296577 
	C381.646179,97.730469 369.916138,97.200005 357.127869,98.496307 
z"/>
<path fill="#FA055B" opacity="1.000000" stroke="none" 
	d="
M8.426947,168.999863 
	C8.427436,129.841888 8.375924,91.183846 8.449338,52.526031 
	C8.487834,32.255447 18.877974,17.032331 36.538094,11.708415 
	C40.915291,10.388842 45.700012,9.919438 50.298801,9.911934 
	C117.783409,9.801800 185.268250,9.823381 252.753036,9.842964 
	C277.094604,9.850028 294.340790,26.206896 294.488007,50.565369 
	C294.807281,103.384842 294.841583,156.209366 294.472473,209.028198 
	C294.302277,233.382324 277.032898,249.866760 252.717773,249.898376 
	C185.233109,249.986115 117.748161,249.988632 50.263500,249.897308 
	C25.593967,249.863922 8.785728,232.922836 8.457940,207.990555 
	C8.289288,195.162399 8.427346,182.330231 8.426947,168.999863 
M50.900375,114.379692 
	C40.501923,143.364624 30.103466,172.349564 19.521503,201.846024 
	C29.446878,201.846024 38.435024,201.988144 47.408546,201.690231 
	C48.729164,201.646393 50.635502,199.751877 51.155716,198.311020 
	C54.144321,190.033417 56.678940,181.591705 59.678452,173.318420 
	C60.181667,171.930435 62.192543,170.160156 63.526741,170.143265 
	C80.499649,169.928360 97.476212,170.001724 114.679916,170.001724 
	C118.217957,180.675781 121.703529,191.191559 125.130486,201.530487 
	C135.888596,201.530487 146.259323,201.530487 156.599869,201.530487 
	C156.599869,200.889969 156.689606,200.534744 156.587158,200.248260 
	C139.974045,153.787506 123.330750,107.337532 106.765999,60.859562 
	C105.877937,58.367821 104.505585,57.731392 102.004120,57.771725 
	C93.013649,57.916676 84.016464,57.959290 75.028275,57.755733 
	C72.009071,57.687359 70.742058,58.703632 69.750038,61.537914 
	C63.658043,78.943092 57.341774,96.269768 50.900375,114.379692 
M269.975586,105.500000 
	C269.975586,89.724991 269.975586,73.949974 269.975586,58.179077 
	C259.675018,58.179077 249.956924,58.179077 239.975159,58.179077 
	C239.975159,67.671280 239.975174,76.816055 239.975174,85.960831 
	C239.975174,95.026031 239.975159,104.091225 239.975159,112.279915 
	C235.330368,108.653816 231.047256,104.015076 225.760971,101.419243 
	C207.929016,92.662834 183.785202,99.033806 171.823090,114.960060 
	C157.813187,133.612762 157.413010,167.186203 170.974274,186.175842 
	C183.900208,204.275879 211.882294,209.592087 230.366638,197.209961 
	C234.071304,194.728333 237.078354,191.205276 240.829361,187.776382 
	C240.829361,192.570572 240.829361,196.980301 240.829361,201.594315 
	C250.660538,201.594315 260.071533,201.594315 269.975555,201.594315 
	C269.975555,169.729523 269.975555,138.114761 269.975586,105.500000 
z"/>
<path fill="#042A4D" opacity="1.000000" stroke="none" 
	d="
M357.570801,98.406601 
	C369.916138,97.200005 381.646179,97.730469 392.883484,102.296577 
	C414.463043,111.065094 425.952087,131.086548 423.880615,156.171158 
	C422.013367,178.782547 406.464569,196.825912 384.210846,201.908096 
	C369.723785,205.216553 355.373932,204.636002 341.620300,198.696045 
	C319.565186,189.170807 308.719360,167.842987 311.983459,141.116638 
	C314.564484,119.983131 331.816559,102.756737 354.171661,98.991547 
	C355.156921,98.825600 356.142456,98.661346 357.570801,98.406601 
M353.451111,125.848221 
	C342.864807,134.364044 339.387512,149.419525 344.752167,163.511398 
	C348.783508,174.100876 357.144196,180.099472 367.830933,180.069992 
	C378.318542,180.041061 387.550537,173.890884 390.581177,163.197266 
	C392.340393,156.989853 392.999817,149.974243 392.113586,143.606293 
	C389.408173,124.166702 371.053802,115.692909 353.451111,125.848221 
z"/>
<path fill="#FFFDFE" opacity="1.000000" stroke="none" 
	d="
M51.000267,114.001129 
	C57.341774,96.269768 63.658043,78.943092 69.750038,61.537914 
	C70.742058,58.703632 72.009071,57.687359 75.028275,57.755733 
	C84.016464,57.959290 93.013649,57.916676 102.004120,57.771725 
	C104.505585,57.731392 105.877937,58.367821 106.765999,60.859562 
	C123.330750,107.337532 139.974045,153.787506 156.587158,200.248260 
	C156.689606,200.534744 156.599869,200.889969 156.599869,201.530487 
	C146.259323,201.530487 135.888596,201.530487 125.130486,201.530487 
	C121.703529,191.191559 118.217957,180.675781 114.679916,170.001724 
	C97.476212,170.001724 80.499649,169.928360 63.526741,170.143265 
	C62.192543,170.160156 60.181667,171.930435 59.678452,173.318420 
	C56.678940,181.591705 54.144321,190.033417 51.155716,198.311020 
	C50.635502,199.751877 48.729164,201.646393 47.408546,201.690231 
	C38.435024,201.988144 29.446878,201.846024 19.521503,201.846024 
	C30.103466,172.349564 40.501923,143.364624 51.000267,114.001129 
M72.791397,146.001846 
	C83.895920,146.001846 95.000443,146.001846 106.858566,146.001846 
	C100.469070,126.526627 94.282982,107.671387 87.710419,87.638191 
	C81.070450,107.879303 74.893242,126.709747 68.614212,145.850616 
	C70.221733,145.925125 71.045372,145.963287 72.791397,146.001846 
z"/>
<path fill="#FFFDFE" opacity="1.000000" stroke="none" 
	d="
M269.975586,106.000000 
	C269.975555,138.114761 269.975555,169.729523 269.975555,201.594315 
	C260.071533,201.594315 250.660538,201.594315 240.829361,201.594315 
	C240.829361,196.980301 240.829361,192.570572 240.829361,187.776382 
	C237.078354,191.205276 234.071304,194.728333 230.366638,197.209961 
	C211.882294,209.592087 183.900208,204.275879 170.974274,186.175842 
	C157.413010,167.186203 157.813187,133.612762 171.823090,114.960060 
	C183.785202,99.033806 207.929016,92.662834 225.760971,101.419243 
	C231.047256,104.015076 235.330368,108.653816 239.975159,112.279915 
	C239.975159,104.091225 239.975174,95.026031 239.975174,85.960831 
	C239.975174,76.816055 239.975159,67.671280 239.975159,58.179077 
	C249.956924,58.179077 259.675018,58.179077 269.975586,58.179077 
	C269.975586,73.949974 269.975586,89.724991 269.975586,106.000000 
M192.302032,151.441452 
	C192.520584,153.757904 192.665237,156.084137 192.969986,158.389191 
	C194.630493,170.948364 203.204102,179.120148 215.384659,179.805222 
	C227.104431,180.464355 236.783813,173.218338 239.038803,160.748672 
	C240.194107,154.359970 240.230820,147.420181 239.076721,141.036102 
	C236.755753,128.197372 227.704346,121.529144 215.043594,121.900131 
	C203.819214,122.229027 195.038712,130.469330 193.082291,142.623886 
	C192.660568,145.243820 192.553513,147.914383 192.302032,151.441452 
z"/>
<path fill="#FDFDFD" opacity="1.000000" stroke="none" 
	d="
M353.738525,125.622772 
	C371.053802,115.692909 389.408173,124.166702 392.113586,143.606293 
	C392.999817,149.974243 392.340393,156.989853 390.581177,163.197266 
	C387.550537,173.890884 378.318542,180.041061 367.830933,180.069992 
	C357.144196,180.099472 348.783508,174.100876 344.752167,163.511398 
	C339.387512,149.419525 342.864807,134.364044 353.738525,125.622772 
z"/>
<path fill="#FA065C" opacity="1.000000" stroke="none" 
	d="
M72.330200,146.001648 
	C71.045372,145.963287 70.221733,145.925125 68.614212,145.850616 
	C74.893242,126.709747 81.070450,107.879303 87.710419,87.638191 
	C94.282982,107.671387 100.469070,126.526627 106.858566,146.001846 
	C95.000443,146.001846 83.895920,146.001846 72.330200,146.001648 
z"/>
<path fill="#FA055C" opacity="1.000000" stroke="none" 
	d="
M192.301773,151.001541 
	C192.553513,147.914383 192.660568,145.243820 193.082291,142.623886 
	C195.038712,130.469330 203.819214,122.229027 215.043594,121.900131 
	C227.704346,121.529144 236.755753,128.197372 239.076721,141.036102 
	C240.230820,147.420181 240.194107,154.359970 239.038803,160.748672 
	C236.783813,173.218338 227.104431,180.464355 215.384659,179.805222 
	C203.204102,179.120148 194.630493,170.948364 192.969986,158.389191 
	C192.665237,156.084137 192.520584,153.757904 192.301773,151.001541 
z"/>
</svg>